<svg xmlns="http://www.w3.org/2000/svg" version="1.1" xmlns:xlink="http://www.w3.org/1999/xlink" xmlns:svgjs="http://svgjs.dev/svgjs" width="1500" height="579" viewBox="0 0 1500 579"><g transform="matrix(1,0,0,1,-0.9090909090909918,-1.1255756244580652)"><svg viewBox="0 0 396 153" data-background-color="#ffffff" preserveAspectRatio="xMidYMid meet" height="579" width="1500" xmlns="http://www.w3.org/2000/svg" xmlns:xlink="http://www.w3.org/1999/xlink"><g id="tight-bounds" transform="matrix(1,0,0,1,0.2400000000000091,0.2974319007635273)"><svg viewBox="0 0 395.52 152.4050762923624" height="152.4050762923624" width="395.52"><g><svg viewBox="0 0 395.52 152.4050762923624" height="152.4050762923624" width="395.52"><g transform="matrix(1,0,0,1,0,99.93084209431623)"><svg viewBox="0 0 395.52 52.47423419804616" height="52.47423419804616" width="395.52"><g id="textblocktransform"><svg viewBox="0 0 395.52 52.47423419804616" height="52.47423419804616" width="395.52" id="textblock"><g><svg viewBox="0 0 395.52 52.47423419804616" height="52.47423419804616" width="395.52"><g transform="matrix(1,0,0,1,0,0)"><svg width="395.52" viewBox="0.967973307804931 -36.041694416662665 437.5572476697516 58.05135801207382" height="52.47423419804616" data-palette-color="#0c0a0f"><path d="M8.733 21.977v0c-0.828 0.098-1.638-0.024-2.43-0.367-0.799-0.342-1.494-0.965-2.084-1.868-0.589-0.897-0.98-2.156-1.172-3.779v0c-0.183-1.549-0.177-3.258 0.017-5.127 0.196-1.863 0.45-3.742 0.763-5.639 0.313-1.897 0.577-3.693 0.792-5.39 0.221-1.704 0.256-3.199 0.104-4.484v0c-0.114-0.96-0.323-1.596-0.628-1.909-0.306-0.32-0.642-0.458-1.006-0.415v0c-0.331 0.039-0.65 0.178-0.958 0.416-0.308 0.238-0.558 0.502-0.752 0.794v0l-0.371-0.158c-0.136-1.152 0.075-2.258 0.635-3.317 0.56-1.053 1.335-1.94 2.323-2.662 0.983-0.714 2.037-1.137 3.163-1.27v0c1.092-0.129 1.998 0.039 2.718 0.504 0.726 0.465 1.316 1.106 1.768 1.926 0.446 0.82 0.761 1.719 0.944 2.697v0c1.024-2.128 2.22-3.76 3.589-4.895 1.377-1.13 2.724-1.772 4.042-1.929v0c1.781-0.211 3.393 0.451 4.837 1.986 1.438 1.542 2.365 4.077 2.783 7.606v0c0.391 3.304 0.189 6.134-0.607 8.49-0.795 2.356-1.929 4.182-3.4 5.477-1.471 1.295-3.031 2.04-4.68 2.235v0c-1.423 0.168-2.787-0.097-4.092-0.794-1.304-0.698-2.38-1.82-3.227-3.364v0c-0.137 1.392-0.237 2.76-0.3 4.103-0.055 1.349-0.009 2.649 0.139 3.901v0c0.082 0.695 0.202 1.369 0.36 2.022 0.164 0.652 0.385 1.294 0.661 1.925v0l0.035 0.298c-0.332 0.878-0.862 1.569-1.587 2.071-0.732 0.51-1.525 0.815-2.379 0.916zM16.131 6.38v0c0.788-0.093 1.442-0.49 1.964-1.189 0.521-0.699 0.938-1.578 1.249-2.635 0.311-1.057 0.505-2.174 0.581-3.352 0.075-1.184 0.048-2.322-0.082-3.414v0c-0.164-1.384-0.482-2.541-0.955-3.472-0.48-0.937-1.101-1.36-1.862-1.27v0c-0.96 0.114-1.918 1.207-2.874 3.281-0.963 2.074-1.543 5.117-1.74 9.127v0c0.419 0.984 0.961 1.739 1.627 2.265 0.666 0.525 1.364 0.745 2.092 0.659zM38.657-18.325v0c-1.326 0.139-2.453-0.151-3.38-0.871-0.927-0.72-1.455-1.694-1.584-2.921v0c-0.139-1.326 0.235-2.518 1.123-3.577 0.893-1.066 2.05-1.673 3.468-1.822v0c1.326-0.139 2.454 0.161 3.383 0.901 0.929 0.74 1.458 1.72 1.586 2.94v0c0.139 1.326-0.235 2.512-1.124 3.557-0.896 1.046-2.053 1.644-3.472 1.793zM37.987 8.784v0c-1.286 0.135-2.491-0.197-3.614-0.998-1.123-0.8-1.791-2.212-2.004-4.234v0c-0.121-1.154-0.076-2.251 0.137-3.292 0.205-1.047 0.466-2.07 0.783-3.069 0.31-1.005 0.573-1.977 0.79-2.918 0.223-0.942 0.287-1.86 0.193-2.756v0c-0.084-0.796-0.276-1.352-0.578-1.668-0.302-0.324-0.636-0.466-1-0.428v0c-0.564 0.059-1.072 0.481-1.526 1.266v0l-0.359-0.163c-0.013-1.333 0.289-2.507 0.906-3.524 0.61-1.023 1.408-1.851 2.394-2.484 0.985-0.64 1.992-1.014 3.019-1.122v0c1.253-0.132 2.386 0.158 3.4 0.87 1.013 0.711 1.616 1.979 1.807 3.802v0c0.114 1.087 0.076 2.251-0.116 3.491-0.185 1.239-0.42 2.477-0.705 3.714-0.292 1.237-0.541 2.383-0.745 3.437-0.204 1.06-0.267 1.955-0.191 2.684v0c0.066 0.623 0.235 1.055 0.509 1.294 0.273 0.239 0.559 0.343 0.857 0.312v0c0.298-0.031 0.581-0.152 0.847-0.36 0.259-0.215 0.443-0.445 0.551-0.692v0l0.358 0.063c0.129 1.227-0.08 2.328-0.628 3.304-0.554 0.977-1.282 1.774-2.182 2.391-0.908 0.612-1.875 0.971-2.903 1.08zM53.417 7.412v0c-1.294 0.052-2.451-0.3-3.471-1.056-1.02-0.757-1.81-2.18-2.37-4.271v0c1.541-0.644 3.035-1.725 4.482-3.244 1.447-1.519 2.858-3.252 4.232-5.199 1.375-1.941 2.727-3.842 4.055-5.705v0c-0.555-0.284-1.087-0.469-1.598-0.556-0.51-0.087-0.981-0.111-1.412-0.071v0c-0.896 0.082-1.594 0.391-2.094 0.925-0.5 0.528-0.714 1.19-0.641 1.987v0c0.067 0.73 0.409 1.532 1.024 2.407v0c-0.392 0.103-0.769 0.188-1.131 0.254-0.362 0.067-0.692 0.114-0.991 0.141v0c-2.085 0.192-3.675-0.211-4.771-1.208-1.09-1.005-1.696-2.171-1.818-3.499v0c-0.088-0.956 0.065-1.914 0.459-2.874 0.394-0.953 1.046-1.763 1.956-2.429 0.91-0.666 2.041-1.061 3.396-1.185v0c1.261-0.116 2.707 0.059 4.336 0.525 1.629 0.466 3.454 1.343 5.474 2.63v0c0.868-1.117 1.72-2.116 2.556-2.996 0.837-0.874 1.7-1.569 2.59-2.086v0c1.846 0.132 3.203 0.65 4.07 1.554 0.873 0.904 1.36 1.904 1.46 2.999v0c0.018 0.199 0.025 0.383 0.021 0.551 0.002 0.167-0.006 0.332-0.025 0.494v0c-1.949 1.016-3.58 2.277-4.895 3.784-1.314 1.507-2.507 3.136-3.577 4.888-1.078 1.753-2.265 3.542-3.564 5.368v0c0.636 0.437 1.246 0.739 1.83 0.906 0.584 0.161 1.108 0.22 1.573 0.177v0c0.89-0.082 1.588-0.454 2.097-1.116 0.508-0.663 0.724-1.409 0.648-2.239v0c-0.024-0.266-0.072-0.529-0.143-0.79-0.078-0.261-0.211-0.516-0.402-0.767v0c0.392-0.103 0.775-0.195 1.15-0.276 0.38-0.088 0.753-0.149 1.117-0.183v0c1.852-0.17 3.253 0.18 4.204 1.05 0.943 0.864 1.471 1.907 1.583 3.128v0c0.085 0.929-0.075 1.881-0.481 2.856-0.413 0.969-1.074 1.796-1.981 2.482-0.908 0.686-2.039 1.091-3.393 1.215v0c-1.261 0.116-2.727-0.101-4.398-0.65-1.671-0.549-3.523-1.548-5.557-2.994v0c-0.754 0.906-1.59 1.783-2.51 2.631-0.926 0.855-1.955 1.669-3.09 2.442zM83.356 4.804v0c-1.295 0.03-2.446-0.343-3.452-1.117-1.007-0.774-1.772-2.211-2.297-4.311v0c1.552-0.617 3.064-1.672 4.537-3.166 1.473-1.494 2.914-3.202 4.322-5.125 1.408-1.917 2.793-3.795 4.153-5.634v0c-0.55-0.293-1.079-0.488-1.588-0.584-0.509-0.096-0.979-0.128-1.411-0.095v0c-0.898 0.067-1.601 0.363-2.11 0.889-0.51 0.519-0.735 1.178-0.675 1.975v0c0.054 0.731 0.382 1.539 0.983 2.424v0c-0.394 0.096-0.772 0.175-1.136 0.235-0.363 0.06-0.694 0.102-0.993 0.124v0c-2.088 0.155-3.671-0.275-4.749-1.291-1.072-1.023-1.658-2.2-1.757-3.529v0c-0.071-0.957 0.098-1.913 0.508-2.866 0.411-0.946 1.077-1.745 1.998-2.395 0.921-0.65 2.059-1.026 3.416-1.126v0c1.263-0.094 2.705 0.106 4.326 0.6 1.621 0.494 3.43 1.402 5.427 2.724v0c0.887-1.102 1.757-2.086 2.608-2.952 0.852-0.859 1.727-1.539 2.626-2.04v0c1.844 0.164 3.191 0.705 4.042 1.624 0.857 0.919 1.327 1.927 1.408 3.024v0c0.015 0.199 0.018 0.383 0.011 0.55-0.001 0.167-0.012 0.332-0.033 0.494v0c-1.966 0.982-3.619 2.215-4.959 3.699-1.34 1.484-2.561 3.092-3.662 4.825-1.108 1.734-2.326 3.502-3.656 5.306v0c0.628 0.448 1.233 0.761 1.815 0.938 0.581 0.171 1.104 0.239 1.569 0.204v0c0.891-0.066 1.596-0.426 2.116-1.08 0.52-0.654 0.748-1.396 0.686-2.227v0c-0.02-0.266-0.063-0.53-0.129-0.793-0.073-0.262-0.202-0.52-0.388-0.773v0c0.394-0.096 0.779-0.182 1.154-0.256 0.382-0.082 0.755-0.136 1.121-0.164v0c1.855-0.138 3.25 0.236 4.185 1.122 0.928 0.88 1.437 1.932 1.528 3.155v0c0.069 0.931-0.107 1.88-0.53 2.848-0.43 0.961-1.104 1.777-2.024 2.447-0.919 0.67-2.057 1.056-3.413 1.156v0c-1.263 0.094-2.725-0.148-4.386-0.726-1.661-0.578-3.496-1.608-5.505-3.09v0c-0.769 0.893-1.621 1.755-2.555 2.587-0.94 0.839-1.984 1.635-3.131 2.389zM118.873 2.389v0c-2.489 0.144-4.575-0.237-6.256-1.142-1.688-0.898-2.968-2.146-3.842-3.745-0.874-1.599-1.364-3.33-1.472-5.193v0c-0.101-1.757 0.12-3.533 0.665-5.328 0.544-1.801 1.396-3.459 2.557-4.975 1.161-1.516 2.615-2.765 4.362-3.747 1.74-0.982 3.771-1.54 6.094-1.674v0c2.496-0.144 4.575 0.244 6.237 1.163 1.669 0.919 2.944 2.184 3.825 3.796 0.875 1.619 1.366 3.374 1.475 5.264v0c0.1 1.73-0.116 3.486-0.647 5.266-0.532 1.774-1.379 3.418-2.541 4.934-1.161 1.523-2.612 2.765-4.352 3.727-1.747 0.969-3.782 1.52-6.105 1.654zM119.977-1.921v0c0.899-0.052 1.617-0.561 2.155-1.527 0.546-0.96 0.927-2.17 1.143-3.632 0.216-1.468 0.281-2.948 0.195-4.439v0c-0.077-1.331-0.272-2.579-0.587-3.742-0.321-1.163-0.752-2.104-1.294-2.82-0.542-0.717-1.209-1.052-2.001-1.007v0c-0.865 0.05-1.577 0.555-2.137 1.516-0.565 0.967-0.953 2.175-1.163 3.623-0.217 1.442-0.282 2.928-0.194 4.458v0c0.076 1.324 0.272 2.569 0.586 3.733 0.321 1.163 0.749 2.107 1.285 2.831 0.542 0.717 1.213 1.052 2.012 1.006zM141.879 1.045v0c-1.192 0.051-2.275-0.394-3.249-1.333-0.974-0.94-1.499-2.309-1.576-4.107v0c-0.036-0.859 0.022-1.843 0.176-2.95 0.153-1.107 0.339-2.24 0.556-3.397 0.218-1.157 0.405-2.246 0.563-3.267 0.157-1.021 0.221-1.864 0.193-2.53v0c-0.03-0.699-0.176-1.25-0.441-1.653-0.271-0.409-0.606-0.605-1.006-0.588v0c-0.633 0.027-1.26 0.487-1.883 1.381v0l-0.308-0.187c-0.056-0.531 0.034-1.166 0.27-1.903 0.235-0.744 0.618-1.468 1.149-2.171 0.537-0.71 1.235-1.313 2.095-1.81 0.866-0.504 1.895-0.781 3.087-0.832v0c1.765-0.075 3.065 0.377 3.901 1.356 0.842 0.979 1.294 2.184 1.355 3.616v0c0.01 0.226 0.013 0.467 0.01 0.72-0.01 0.247-0.026 0.488-0.049 0.723v0c1.107-2.209 2.293-3.914 3.556-5.115 1.264-1.201 2.458-1.826 3.584-1.874v0c1.066-0.045 1.866 0.335 2.401 1.14 0.535 0.811 0.827 1.8 0.876 2.965v0c0.045 1.059-0.119 2.147-0.492 3.264-0.366 1.117-0.941 2.048-1.723 2.796-0.782 0.747-1.757 1.129-2.924 1.145v0l-0.205-0.092c-0.07-0.864-0.382-1.532-0.935-2.002-0.554-0.477-1.161-0.701-1.82-0.674v0c-0.899 0.038-1.719 0.523-2.461 1.456-0.748 0.926-1.086 2.238-1.014 3.936v0c0.043 1.026 0.207 2.133 0.491 3.323 0.284 1.182 0.443 2.19 0.478 3.022v0c0.042 0.999-0.152 1.925-0.582 2.777-0.425 0.845-0.993 1.527-1.705 2.044-0.712 0.511-1.501 0.784-2.368 0.821zM167.919-26.845v0c-1.333 0.042-2.435-0.33-3.306-1.116-0.872-0.786-1.327-1.796-1.366-3.029v0c-0.042-1.333 0.419-2.494 1.381-3.485 0.969-0.998 2.167-1.519 3.593-1.564v0c1.333-0.042 2.435 0.34 3.307 1.147 0.872 0.806 1.328 1.823 1.367 3.049v0c0.042 1.333-0.419 2.488-1.382 3.465-0.97 0.978-2.168 1.489-3.594 1.533zM165.265 0.142v0c-1.293 0.041-2.47-0.379-3.532-1.26-1.061-0.88-1.624-2.337-1.688-4.369v0c-0.036-1.159 0.089-2.251 0.378-3.274 0.281-1.029 0.617-2.03 1.006-3.003 0.383-0.979 0.716-1.93 1.001-2.852 0.291-0.923 0.423-1.834 0.395-2.734v0c-0.025-0.8-0.176-1.368-0.454-1.707-0.278-0.345-0.6-0.511-0.966-0.5v0c-0.566 0.018-1.105 0.402-1.615 1.152v0l-0.346-0.19c0.085-1.33 0.472-2.479 1.162-3.448 0.683-0.975 1.539-1.742 2.569-2.302 1.029-0.566 2.061-0.865 3.094-0.897v0c1.259-0.04 2.368 0.333 3.326 1.116 0.958 0.784 1.466 2.092 1.524 3.924v0c0.034 1.093-0.089 2.251-0.371 3.474-0.275 1.223-0.6 2.44-0.976 3.652-0.382 1.213-0.714 2.337-0.995 3.373-0.281 1.043-0.41 1.93-0.386 2.663v0c0.02 0.626 0.157 1.069 0.412 1.328 0.255 0.259 0.532 0.383 0.832 0.374v0c0.3-0.009 0.59-0.109 0.871-0.297 0.274-0.195 0.474-0.412 0.6-0.649v0l0.353 0.089c0.039 1.233-0.251 2.316-0.869 3.248-0.624 0.933-1.408 1.675-2.351 2.225-0.95 0.543-1.942 0.831-2.974 0.864zM181.251-0.305v0c-1.226 0.023-2.349-0.447-3.366-1.408-1.018-0.961-1.543-2.325-1.575-4.092v0c-0.016-0.86 0.083-1.842 0.296-2.946 0.213-1.104 0.453-2.222 0.718-3.354 0.259-1.138 0.496-2.209 0.711-3.213 0.215-0.997 0.317-1.813 0.306-2.446v0c-0.012-0.667-0.155-1.187-0.429-1.563-0.274-0.382-0.627-0.569-1.061-0.56v0c-0.567 0.01-1.174 0.355-1.821 1.033v0l-0.304-0.194c-0.043-0.533 0.062-1.165 0.316-1.896 0.253-0.738 0.647-1.452 1.18-2.142 0.534-0.697 1.23-1.283 2.089-1.759 0.858-0.482 1.883-0.735 3.076-0.756v0c1.766-0.032 3.082 0.45 3.947 1.447 0.865 0.998 1.311 2.23 1.338 3.697v0c0.01 0.527-0.031 1.041-0.121 1.542v0c0.681-1.039 1.525-2.095 2.532-3.167 1.014-1.065 2.138-1.96 3.371-2.682 1.234-0.716 2.517-1.086 3.851-1.111v0c1.56-0.029 2.632 0.448 3.216 1.431 0.585 0.989 0.891 2.234 0.919 3.734v0c0.026 1.393-0.097 2.889-0.368 4.487-0.271 1.605-0.542 3.15-0.815 4.636-0.273 1.485-0.4 2.728-0.381 3.728v0c0.024 1.326 0.42 1.983 1.186 1.968v0c0.4-0.007 0.748-0.137 1.043-0.389 0.295-0.259 0.491-0.506 0.587-0.741v0l0.352 0.144c0.023 1.233-0.301 2.323-0.97 3.268-0.663 0.939-1.506 1.678-2.53 2.217-1.017 0.532-2.059 0.808-3.125 0.827v0c-1.293 0.024-2.448-0.405-3.464-1.286-1.016-0.875-1.543-2.329-1.58-4.362v0c-0.022-1.193 0.114-2.493 0.408-3.898 0.288-1.399 0.57-2.751 0.846-4.056 0.276-1.299 0.407-2.365 0.391-3.198v0c-0.009-0.5-0.11-0.888-0.301-1.165-0.185-0.283-0.511-0.421-0.978-0.412v0c-0.767 0.014-1.6 0.379-2.5 1.096-0.9 0.717-1.663 1.661-2.289 2.833-0.632 1.178-0.935 2.464-0.909 3.857v0c0.017 0.9 0.142 1.764 0.378 2.593 0.229 0.829 0.352 1.724 0.369 2.684v0c0.033 1.8-0.405 3.171-1.315 4.115-0.916 0.95-1.991 1.437-3.224 1.459zM215.459-0.513v0c-2.493 0.005-4.554-0.491-6.183-1.488-1.635-0.99-2.845-2.308-3.628-3.952-0.783-1.645-1.177-3.401-1.181-5.268v0c-0.004-1.76 0.316-3.521 0.96-5.282 0.643-1.768 1.586-3.377 2.83-4.826 1.244-1.449 2.765-2.616 4.562-3.499 1.792-0.884 3.851-1.328 6.178-1.333v0c2.5-0.005 4.554 0.497 6.163 1.508 1.615 1.01 2.818 2.344 3.608 4.002 0.783 1.665 1.177 3.444 1.181 5.338v0c0.004 1.733-0.31 3.474-0.939 5.222-0.63 1.741-1.567 3.337-2.811 4.786-1.244 1.456-2.761 2.616-4.552 3.479-1.798 0.87-3.861 1.308-6.188 1.313zM216.801-4.756v0c0.9-0.002 1.646-0.47 2.237-1.405 0.598-0.928 1.046-2.115 1.342-3.562 0.297-1.454 0.444-2.928 0.441-4.421v0c-0.003-1.333-0.129-2.59-0.377-3.77-0.256-1.179-0.634-2.142-1.136-2.887-0.502-0.746-1.149-1.118-1.943-1.116v0c-0.867 0.002-1.606 0.467-2.217 1.394-0.618 0.935-1.072 2.119-1.362 3.553-0.297 1.427-0.444 2.908-0.441 4.441v0c0.003 1.327 0.129 2.58 0.377 3.759 0.256 1.179 0.631 2.145 1.126 2.898 0.502 0.746 1.152 1.118 1.953 1.116zM260.899 6.447l-32.366-0.534c-0.092-0.462-0.136-0.876-0.129-1.242v0c0.019-1.133 0.449-2.143 1.29-3.03v0l32.376 0.534c0.193 0.437 0.285 0.888 0.277 1.355v0c-0.016 1-0.499 1.972-1.448 2.917zM269.692 0.085v0c-1.726-0.061-3.11-0.616-4.154-1.666-1.05-1.051-1.538-2.642-1.464-4.774v0c0.037-1.059 0.203-2.174 0.498-3.345 0.288-1.171 0.612-2.327 0.972-3.468 0.353-1.135 0.663-2.161 0.928-3.079 0.266-0.925 0.409-1.67 0.429-2.237v0c0.02-0.566-0.082-0.977-0.307-1.231-0.224-0.261-0.503-0.398-0.836-0.41v0c-0.333-0.012-0.67 0.087-1.011 0.295-0.341 0.202-0.632 0.515-0.874 0.94v0l-0.394-0.164c0.114-1.357 0.535-2.506 1.262-3.448 0.733-0.942 1.632-1.64 2.695-2.097 1.064-0.463 2.128-0.676 3.194-0.638v0c0.866 0.03 1.69 0.233 2.47 0.607 0.787 0.374 1.412 0.93 1.873 1.666 0.455 0.73 0.646 1.644 0.574 2.742v0c-0.059 0.725-0.223 1.616-0.494 2.675-0.271 1.058-0.584 2.188-0.939 3.389-0.362 1.201-0.68 2.361-0.953 3.478-0.273 1.124-0.425 2.12-0.455 2.986v0c-0.025 0.726 0.064 1.31 0.269 1.751 0.198 0.441 0.564 0.67 1.097 0.689v0c0.566 0.02 1.326-0.254 2.28-0.821 0.947-0.56 1.907-1.391 2.879-2.491v0c-0.135-1.866-0.177-3.515-0.127-4.947v0c0.128-3.658 0.761-6.281 1.897-7.868 1.137-1.594 2.521-2.363 4.154-2.306v0c1.193 0.042 1.991 0.47 2.396 1.285 0.405 0.815 0.584 1.885 0.538 3.21v0c-0.069 1.965-0.467 3.799-1.194 5.502-0.72 1.709-1.548 3.061-2.483 4.055v0c0.014 1.501 0.28 2.675 0.797 3.521 0.517 0.852 1.159 1.291 1.925 1.318v0c0.766 0.027 1.571-0.379 2.414-1.216 0.843-0.831 1.596-2.135 2.258-3.914 0.662-1.771 1.092-4.034 1.289-6.789v0c0.111-2.224 0.019-3.858-0.278-4.902v0l0.009-0.25c0.493-0.75 1.256-1.38 2.287-1.891 1.032-0.511 2.064-0.748 3.097-0.712v0c0.733 0.026 1.399 0.256 1.997 0.69 0.598 0.435 1.061 1.218 1.389 2.35 0.327 1.125 0.404 2.733 0.231 4.822v0c-0.203 2.921-0.776 5.473-1.72 7.654-0.937 2.175-2.104 3.989-3.502 5.441-1.405 1.445-2.9 2.523-4.487 3.234-1.586 0.712-3.145 1.04-4.677 0.987v0c-1.726-0.061-3.288-0.589-4.687-1.585-1.393-0.996-2.425-2.373-3.097-4.131v0c-1.554 1.513-3.138 2.755-4.754 3.725-1.615 0.977-3.352 1.433-5.211 1.368zM313.943 2.046v0c-2.423-0.131-4.404-0.729-5.942-1.794-1.545-1.065-2.673-2.425-3.384-4.079-0.705-1.654-1.007-3.413-0.906-5.276v0c0.095-1.757 0.53-3.506 1.306-5.247 0.775-1.741 1.858-3.304 3.248-4.692 1.391-1.393 3.049-2.489 4.975-3.285 1.926-0.79 4.067-1.122 6.423-0.994v0c2.922 0.158 5.02 0.93 6.294 2.314 1.274 1.384 1.86 3.005 1.76 4.862v0c-0.087 1.598-0.589 3.046-1.507 4.345-0.918 1.299-2.098 2.317-3.541 3.053-1.435 0.737-2.985 1.06-4.649 0.97v0c-0.859-0.047-1.73-0.227-2.614-0.543-0.884-0.315-1.741-0.775-2.569-1.381v0c0.055 2.066 0.57 3.593 1.544 4.581 0.982 0.981 2.185 1.51 3.609 1.587v0c0.999 0.054 2.007-0.082 3.027-0.407 1.013-0.332 1.962-0.782 2.847-1.348 0.879-0.567 1.57-1.187 2.074-1.86v0l0.336 0.269c-0.094 1.731-0.533 3.182-1.318 4.355-0.778 1.173-1.77 2.107-2.976 2.803-1.2 0.703-2.498 1.193-3.895 1.471-1.397 0.272-2.777 0.37-4.142 0.296zM315.82-11.342v0c1.065 0.058 1.944-0.202 2.636-0.778 0.699-0.583 1.238-1.278 1.615-2.086 0.378-0.814 0.584-1.537 0.618-2.17v0c0.041-0.766-0.14-1.416-0.545-1.952-0.405-0.536-0.99-0.825-1.756-0.866v0c-0.592-0.032-1.26 0.149-2.002 0.542-0.735 0.387-1.414 1.092-2.037 2.113-0.616 1.015-1.057 2.446-1.325 4.295v0c1.031 0.557 1.963 0.857 2.796 0.902zM342.091 3.656v0c-1.33-0.092-2.521-0.465-3.571-1.119-1.057-0.661-1.896-1.578-2.516-2.75v0c-0.077 0.63-0.35 1.192-0.819 1.687-0.469 0.502-1.299 0.712-2.489 0.63v0c-1.33-0.092-2.283-0.525-2.857-1.3-0.582-0.769-0.831-1.752-0.749-2.949v0c0.051-0.732 0.223-1.779 0.518-3.141 0.295-1.363 0.641-2.896 1.04-4.6 0.399-1.71 0.806-3.483 1.22-5.318 0.408-1.836 0.772-3.629 1.093-5.377 0.321-1.742 0.53-3.311 0.627-4.708v0c0.064-0.924 0.07-1.739 0.018-2.445-0.051-0.705-0.196-1.267-0.434-1.684v0l0.02-0.299c0.822-0.772 1.663-1.338 2.524-1.7 0.853-0.355 1.662-0.507 2.427-0.454v0c1.131 0.078 2.061 0.594 2.79 1.546 0.736 0.946 1.037 2.401 0.901 4.363v0c-0.066 0.958-0.259 2.301-0.58 4.029-0.32 1.729-0.689 3.447-1.108 5.156v0c1.314-1.613 2.674-2.822 4.08-3.627 1.405-0.798 2.739-1.154 4.003-1.066v0c1.689 0.117 3.077 1.021 4.163 2.713 1.079 1.692 1.506 4.164 1.281 7.416v0c-0.133 1.922-0.487 3.805-1.062 5.651-0.575 1.845-1.364 3.491-2.366 4.938-1.002 1.448-2.189 2.572-3.562 3.372-1.372 0.807-2.903 1.152-4.592 1.036zM339.945-1.544v0c1.064 0.074 2.001-0.329 2.81-1.209 0.809-0.873 1.456-2.018 1.941-3.435 0.479-1.417 0.771-2.89 0.877-4.42v0c0.069-0.991 0.051-1.951-0.051-2.88-0.103-0.923-0.301-1.685-0.594-2.286-0.293-0.602-0.701-0.921-1.227-0.957v0c-0.931-0.064-2.06 0.947-3.387 3.033-1.328 2.093-2.462 5.109-3.402 9.047v0c0.466 1.963 1.477 2.999 3.033 3.107zM363.565 5.556v0c-2.059-0.173-3.743-0.598-5.051-1.277-1.315-0.679-2.264-1.484-2.848-2.417-0.591-0.933-0.849-1.847-0.773-2.744v0c0.105-1.256 0.761-2.328 1.966-3.217 1.211-0.882 2.777-1.242 4.696-1.081v0c-0.142 1.694-0.04 3.064 0.308 4.11 0.347 1.046 0.841 1.813 1.483 2.302 0.648 0.489 1.284 0.76 1.908 0.813v0c0.764 0.064 1.421-0.108 1.97-0.517 0.556-0.402 0.861-0.935 0.917-1.599v0c0.077-0.923-0.336-1.774-1.241-2.553-0.905-0.778-2.082-1.663-3.53-2.654v0c-0.725-0.529-1.507-1.137-2.346-1.823-0.846-0.686-1.547-1.495-2.105-2.424-0.558-0.93-0.785-2.009-0.681-3.239v0c0.109-1.295 0.58-2.407 1.413-3.333 0.828-0.934 1.881-1.689 3.161-2.264 1.286-0.575 2.654-0.978 4.105-1.211 1.457-0.226 2.867-0.281 4.229-0.167v0c2.551 0.214 4.428 0.887 5.631 2.018 1.209 1.138 1.765 2.289 1.667 3.451v0c-0.083 0.99-0.656 1.842-1.719 2.556-1.063 0.714-2.621 0.984-4.674 0.812v0c0.175-1.691-0.07-2.956-0.736-3.795-0.659-0.838-1.404-1.292-2.234-1.362v0c-0.598-0.05-1.111 0.091-1.541 0.423-0.429 0.332-0.673 0.843-0.73 1.534v0c-0.067 0.797 0.135 1.507 0.604 2.128 0.462 0.628 1.064 1.196 1.803 1.707 0.74 0.51 1.508 1 2.306 1.468v0c1.085 0.626 2.097 1.28 3.037 1.961 0.946 0.681 1.703 1.427 2.27 2.237 0.567 0.817 0.805 1.773 0.713 2.87v0c-0.125 1.488-0.845 2.819-2.161 3.993-1.316 1.174-3.02 2.068-5.113 2.682-2.085 0.608-4.32 0.812-6.704 0.612zM391.486-19.194v0c-1.327-0.127-2.374-0.635-3.139-1.525-0.765-0.89-1.089-1.949-0.973-3.177v0c0.127-1.327 0.73-2.421 1.811-3.283 1.087-0.867 2.341-1.233 3.762-1.097v0c1.327 0.127 2.373 0.645 3.136 1.556 0.764 0.91 1.087 1.976 0.97 3.197v0c-0.127 1.327-0.73 2.415-1.809 3.262-1.086 0.847-2.338 1.203-3.758 1.067zM385.442 7.241v0c-1.287-0.123-2.402-0.688-3.344-1.696-0.942-1.008-1.316-2.523-1.122-4.547v0c0.11-1.155 0.373-2.221 0.788-3.2 0.409-0.986 0.868-1.936 1.378-2.852 0.503-0.923 0.955-1.824 1.353-2.703 0.405-0.879 0.651-1.766 0.737-2.662v0c0.076-0.796-0.002-1.38-0.235-1.75-0.232-0.377-0.53-0.583-0.895-0.618v0c-0.564-0.054-1.147 0.259-1.747 0.938v0l-0.319-0.232c0.252-1.309 0.782-2.4 1.588-3.274 0.801-0.881 1.747-1.534 2.84-1.958 1.093-0.431 2.153-0.598 3.182-0.5v0c1.254 0.12 2.307 0.629 3.159 1.528 0.852 0.898 1.19 2.26 1.015 4.085v0c-0.104 1.088-0.373 2.221-0.807 3.399-0.427 1.178-0.904 2.345-1.429 3.5-0.532 1.155-1.003 2.228-1.413 3.22-0.41 0.999-0.65 1.863-0.72 2.593v0c-0.06 0.624 0.021 1.08 0.24 1.369 0.22 0.289 0.48 0.448 0.779 0.476v0c0.299 0.029 0.599-0.033 0.901-0.185 0.296-0.159 0.522-0.349 0.677-0.568v0l0.339 0.133c-0.117 1.228-0.541 2.265-1.272 3.113-0.737 0.847-1.609 1.484-2.613 1.91-1.011 0.419-2.031 0.579-3.06 0.481zM402.635 8.982v0c-1.061-0.112-2.037-0.457-2.927-1.033-0.89-0.584-1.57-1.416-2.039-2.499-0.475-1.089-0.628-2.426-0.46-4.011v0c0.091-0.862 0.293-1.98 0.606-3.354 0.312-1.368 0.699-2.866 1.159-4.493 0.453-1.621 0.917-3.245 1.391-4.871v0c-0.666-0.037-1.31-0.038-1.931-0.003-0.62 0.035-1.236 0.087-1.846 0.156v0l-0.063-0.358c0.746-0.719 1.511-1.322 2.293-1.809 0.789-0.486 1.6-0.87 2.435-1.15v0c0.662-2.136 1.227-3.99 1.694-5.563 0.468-1.573 0.718-2.508 0.75-2.806v0c0.06-0.564 0.546-0.981 1.46-1.254 0.913-0.265 1.916-0.34 3.01-0.224v0c0.955 0.101 1.834 0.375 2.638 0.822 0.81 0.454 1.319 1.128 1.526 2.022v0c-0.22 0.178-0.58 0.884-1.079 2.118-0.499 1.234-1.044 2.739-1.634 4.513v0c0.626 0.1 1.269 0.201 1.929 0.305 0.653 0.103 1.324 0.224 2.013 0.364v0c0.045 0.206 0.072 0.427 0.08 0.662 0.009 0.236-0.001 0.486-0.029 0.751v0c-0.053 0.497-0.182 1.027-0.389 1.588-0.214 0.567-0.445 1.069-0.692 1.505v0c-0.782-0.15-1.517-0.301-2.205-0.454-0.687-0.16-1.36-0.291-2.019-0.395v0c-0.416 1.397-0.806 2.797-1.169 4.2-0.369 1.396-0.671 2.668-0.906 3.816-0.235 1.142-0.387 2.044-0.458 2.707v0c-0.147 1.392 0.01 2.344 0.472 2.856 0.461 0.518 1.057 0.816 1.786 0.892v0c0.663 0.07 1.274 0.001 1.832-0.208 0.552-0.21 0.963-0.481 1.233-0.815v0l0.482 0.192c-0.343 1.338-0.995 2.466-1.956 3.383-0.968 0.916-2.079 1.587-3.331 2.011-1.244 0.418-2.463 0.564-3.656 0.437zM423.577 11.499v0c-2.41-0.284-4.349-1.006-5.816-2.166-1.474-1.161-2.514-2.589-3.119-4.285-0.599-1.695-0.789-3.47-0.571-5.323v0c0.206-1.748 0.751-3.466 1.635-5.154 0.884-1.688 2.063-3.18 3.539-4.477 1.476-1.303 3.2-2.291 5.173-2.964 1.972-0.667 4.129-0.862 6.473-0.586v0c2.907 0.343 4.952 1.245 6.135 2.707 1.184 1.462 1.666 3.117 1.448 4.964v0c-0.187 1.589-0.78 3.003-1.779 4.241-0.999 1.238-2.241 2.179-3.726 2.823-1.479 0.645-3.046 0.869-4.701 0.674v0c-0.854-0.101-1.712-0.336-2.575-0.707-0.863-0.37-1.688-0.884-2.477-1.54v0c-0.076 2.065 0.342 3.622 1.252 4.669 0.918 1.041 2.085 1.646 3.502 1.812v0c0.993 0.117 2.008 0.046 3.046-0.215 1.032-0.268 2.007-0.656 2.927-1.165 0.913-0.51 1.642-1.085 2.187-1.725v0l0.318 0.289c-0.203 1.721-0.733 3.142-1.59 4.263-0.851 1.121-1.9 1.991-3.147 2.609-1.242 0.626-2.569 1.033-3.981 1.222-1.411 0.183-2.795 0.194-4.153 0.034zM426.297-1.743v0c1.059 0.125 1.953-0.079 2.68-0.611 0.735-0.538 1.316-1.197 1.744-1.979 0.429-0.789 0.68-1.497 0.754-2.126v0c0.09-0.761-0.05-1.422-0.42-1.983-0.37-0.561-0.936-0.886-1.698-0.976v0c-0.589-0.07-1.267 0.069-2.032 0.415-0.758 0.34-1.481 1-2.167 1.98-0.679 0.974-1.21 2.375-1.593 4.202v0c0.994 0.621 1.905 0.98 2.732 1.078z" opacity="1" transform="matrix(1,0,0,1,0,0)" fill="#0c0a0f" class="wordmark-text-0" data-fill-palette-color="primary" id="text-0"></path></svg></g></svg></g></svg></g></svg></g><g transform="matrix(1,0,0,1,156.2774251367997,0)"><svg viewBox="0 0 82.96514972640058 84.90331093243869" height="84.90331093243869" width="82.96514972640058"><g><svg xmlns="http://www.w3.org/2000/svg" xmlns:xlink="http://www.w3.org/1999/xlink" version="1.1" x="0" y="0" viewBox="0.00014252665719063397 0 80.66685747334282 82.55132793212495" enable-background="new 0 0 80.667 82.551" xml:space="preserve" id="icon-0" width="82.96514972640058" height="84.90331093243869" class="icon-icon-0" data-fill-palette-color="accent"><path fill-rule="evenodd" clip-rule="evenodd" d="M45.85 0C51.568 0.169 56.297 1.461 60.298 3.448 64.323 5.448 67.663 7.995 70.571 11.022 73.467 14.036 75.838 17.612 77.618 21.782 79.393 25.939 80.634 30.729 80.667 36.492H45.828V0.064C45.825 0.034 45.823 0.003 45.85 0M51.925 7.203A2.9 2.9 0 0 0 50.821 8.446C49.639 10.884 51.883 13.1 54.223 12.855 55.287 12.745 56.129 12.232 56.654 11.481 56.895 11.134 57.125 10.709 57.183 10.127 57.329 8.714 56.631 7.774 55.88 7.246A3.5 3.5 0 0 0 53.736 6.635 3.4 3.4 0 0 0 51.925 7.203M61.734 14.536C61.289 15.029 60.861 15.872 60.939 16.828 61.08 18.555 62.429 19.751 64.319 19.731 66.078 19.713 67.527 18.484 67.611 16.741 67.657 15.776 67.14 14.921 66.727 14.493 66.122 13.868 65.171 13.395 63.899 13.511 62.967 13.595 62.187 14.035 61.734 14.536M52.234 25.428C52.076 25.652 51.754 26.293 51.704 26.846 51.479 29.356 53.997 30.823 56.166 30.098 57.291 29.721 58.275 28.777 58.376 27.412A2.95 2.95 0 0 0 58 25.688C57.467 24.728 56.373 23.938 54.819 24.05 53.652 24.138 52.744 24.702 52.234 25.428M69.819 25.012A3.04 3.04 0 0 0 68.936 26.933C68.799 28.943 70.432 30.275 72.249 30.294 73.979 30.313 75.481 29.089 75.608 27.457 75.706 26.192 75.139 25.348 74.481 24.816A3.4 3.4 0 0 0 72.05 24.052C71.034 24.126 70.314 24.518 69.819 25.012" fill="#f98d67" data-fill-palette-color="accent"></path><path fill-rule="evenodd" clip-rule="evenodd" fill="#f98d67" d="M34.817 8.889C34.92 21.457 34.832 34.214 34.861 46.867 46.916 46.918 59.068 46.874 71.158 46.888 71.194 49.009 70.9 51.005 70.561 52.89 70.225 54.759 69.716 56.517 69.147 58.172 68.01 61.476 66.502 64.476 64.663 67.099 60.964 72.37 56.181 76.576 50.082 79.387A34.4 34.4 0 0 1 39.544 82.333C35.331 82.811 30.902 82.481 27.239 81.569 20.175 79.811 14.548 76.212 10.25 71.66 4.84 65.93 0.865 58.581 0.088 48.306-0.07 46.216-0.004 44.028 0.199 41.911A36.9 36.9 0 0 1 2.872 31.217C5.471 24.973 9.432 19.958 14.515 16.025A33.7 33.7 0 0 1 23.131 11.18C26.521 9.876 30.308 9.001 34.817 8.889M25.229 13.755C24.64 14.314 24.104 15.21 24.301 16.44 24.557 18.034 26.014 19.232 27.968 19.081 29.63 18.953 31.101 17.587 30.95 15.676 30.889 14.897 30.46 14.184 29.978 13.733 29.324 13.123 28.405 12.756 27.26 12.86A3.4 3.4 0 0 0 25.229 13.755M13.962 21.984C12.775 22.272 11.891 23.102 11.576 24.232 11.173 25.678 11.894 26.879 12.725 27.484 13.732 28.218 15.241 28.34 16.349 27.811 17.287 27.362 18.165 26.428 18.16 24.996 18.157 23.956 17.624 23.19 17.099 22.725 16.536 22.226 15.608 21.83 14.536 21.918 14.278 21.939 14.116 21.947 13.962 21.984M25.273 26.851C24.69 27.379 24.186 28.226 24.279 29.405 24.409 31.06 25.893 32.254 27.637 32.243 29.303 32.231 30.831 31.105 30.951 29.34A3.03 3.03 0 0 0 29.979 26.873 3.5 3.5 0 0 0 27.372 26C26.428 26.073 25.801 26.373 25.273 26.851M6.384 36.062C5.952 36.29 5.608 36.545 5.323 36.913 4.847 37.526 4.468 38.807 4.882 39.882 5.206 40.725 5.96 41.403 6.848 41.715 7.876 42.074 9.111 41.903 9.941 41.365 10.697 40.876 11.377 40.05 11.377 38.79 11.377 37.753 10.872 37.01 10.361 36.542 9.794 36.021 8.971 35.643 7.931 35.669A3.6 3.6 0 0 0 6.384 36.062M19.418 43.962C18.931 44.443 18.488 45.13 18.49 46.123 18.494 47.637 19.49 48.577 20.522 48.982 21.85 49.503 23.326 49.181 24.233 48.284 25.044 47.483 25.546 46.038 24.83 44.705 24.355 43.818 23.233 42.884 21.605 43.002 20.6 43.076 19.928 43.459 19.418 43.962M63.051 50.445C62.574 50.943 62.164 51.7 62.19 52.628 62.213 53.567 62.597 54.219 63.117 54.723 63.739 55.327 64.626 55.771 65.835 55.684 67.327 55.577 68.54 54.576 68.817 53.153 69.031 52.057 68.578 51.064 68.044 50.489 67.404 49.799 66.418 49.337 65.15 49.464 64.248 49.552 63.502 49.973 63.051 50.445M5.213 50.772C4.735 51.186 4.262 51.906 4.197 52.736 4.118 53.742 4.447 54.443 4.816 54.919 5.453 55.741 6.556 56.275 7.798 56.186 9.449 56.066 10.988 54.775 10.869 52.869 10.83 52.255 10.58 51.722 10.294 51.319 9.776 50.588 8.826 49.88 7.4 49.943 6.446 49.985 5.719 50.335 5.213 50.772M48.447 51.995A3.06 3.06 0 0 0 47.631 54.352C47.837 56.836 51.046 57.952 52.999 56.555 53.763 56.01 54.404 55.064 54.303 53.761 54.167 52.04 52.573 50.77 50.634 50.946 49.664 51.035 48.979 51.435 48.447 51.995M38.484 57.604C38.006 58.075 37.547 58.796 37.578 59.852 37.639 61.866 39.712 63.386 41.931 62.754 43.128 62.412 44.277 61.36 44.272 59.741 44.271 58.742 43.76 57.966 43.234 57.494A3.4 3.4 0 0 0 40.738 56.642C39.691 56.715 38.974 57.12 38.484 57.604M25.803 57.8C25.26 58.201 24.961 58.588 24.742 59.132 24.172 60.553 24.815 61.899 25.603 62.58 26.554 63.401 28.077 63.606 29.27 63.082 30.271 62.643 31.217 61.71 31.214 60.245 31.212 59.188 30.685 58.425 30.153 57.953 29.583 57.447 28.654 57.057 27.569 57.145A3.26 3.26 0 0 0 25.803 57.8M11.156 63.039C10.675 63.504 10.209 64.243 10.206 65.199 10.202 66.712 11.18 67.622 12.084 68.037 14.759 69.265 17.901 66.736 16.613 63.955A3.27 3.27 0 0 0 13.388 62.101C12.365 62.17 11.678 62.533 11.156 63.039M52.689 64.152C52.096 64.663 51.548 65.535 51.651 66.771 51.79 68.455 53.386 69.711 55.229 69.564 56.912 69.429 58.447 68.228 58.323 66.247A3.03 3.03 0 0 0 57.439 64.305 3.44 3.44 0 0 0 54.744 63.345C53.822 63.416 53.212 63.7 52.689 64.152M23.837 72.816A3.1 3.1 0 0 0 23.02 75.13C23.107 76.308 23.867 77.199 24.81 77.661 25.845 78.168 27.272 78.13 28.279 77.465 29.087 76.932 29.82 75.91 29.693 74.54 29.618 73.738 29.132 73.061 28.699 72.663 28.019 72.04 27.186 71.681 25.982 71.79 25.042 71.876 24.292 72.335 23.837 72.816M39.081 73.145A2.9 2.9 0 0 0 38.086 75.131C37.973 76.659 38.799 77.636 39.897 78.164 40.947 78.669 42.241 78.579 43.145 78.077 43.942 77.633 44.67 76.807 44.758 75.676 44.813 74.975 44.714 74.566 44.448 74.039 43.947 73.047 42.765 72.166 41.244 72.27 40.253 72.339 39.591 72.689 39.081 73.145" data-fill-palette-color="accent"></path></svg></g></svg></g><g></g></svg></g><defs></defs></svg><rect width="395.52" height="152.4050762923624" fill="none" stroke="none" visibility="hidden"></rect></g></svg></g></svg>